<?xml version="1.0" encoding="UTF-8" standalone="no"?>
<!DOCTYPE svg PUBLIC "-//W3C//DTD SVG 1.1//EN"
 "http://www.w3.org/Graphics/SVG/1.1/DTD/svg11.dtd">
<!-- Generated by graphviz version 2.40.1 (20161225.0304)
 -->
<!-- Title: dependencies Pages: 1 -->
<svg width="576pt" height="355pt"
 viewBox="0.00 0.00 576.00 355.00" xmlns="http://www.w3.org/2000/svg" xmlns:xlink="http://www.w3.org/1999/xlink">
<g id="graph0" class="graph" transform="scale(1 1) rotate(0) translate(4 351)">
<title>dependencies</title>
<polygon fill="#ffffff" stroke="transparent" points="-4,4 -4,-351 572,-351 572,4 -4,4"/>
<text text-anchor="start" x="263.0091" y="-42.4" font-family="sans-serif" font-weight="bold" font-size="14.00" fill="#000000">Legend</text>
<polygon fill="#ffffb3" stroke="transparent" points="50,-10 50,-30 70,-30 70,-10 50,-10"/>
<text text-anchor="start" x="73.629" y="-15.4" font-family="sans-serif" font-size="14.00" fill="#000000"> &#160;Declarations</text>
<polygon fill="#8dd3c7" stroke="transparent" points="163,-10 163,-30 183,-30 183,-10 163,-10"/>
<text text-anchor="start" x="186.7251" y="-15.4" font-family="sans-serif" font-size="14.00" fill="#000000"> &#160;Module</text>
<polygon fill="#80b1d3" stroke="transparent" points="249,-10 249,-30 269,-30 269,-10 249,-10"/>
<text text-anchor="start" x="272.7812" y="-15.4" font-family="sans-serif" font-size="14.00" fill="#000000"> &#160;Bootstrap</text>
<polygon fill="#fdb462" stroke="transparent" points="346,-10 346,-30 366,-30 366,-10 346,-10"/>
<text text-anchor="start" x="369.6732" y="-15.4" font-family="sans-serif" font-size="14.00" fill="#000000"> &#160;Providers</text>
<polygon fill="#fb8072" stroke="transparent" points="442,-10 442,-30 462,-30 462,-10 442,-10"/>
<text text-anchor="start" x="465.7258" y="-15.4" font-family="sans-serif" font-size="14.00" fill="#000000"> &#160;Exports</text>
<g id="clust1" class="cluster">
<title>cluster_CloukitPaginationModule</title>
<polygon fill="none" stroke="#000000" stroke-dasharray="1,5" points="8,-70 8,-271 226,-271 226,-70 8,-70"/>
</g>
<g id="clust3" class="cluster">
<title>cluster_CloukitPaginationModule_imports</title>
<polygon fill="none" stroke="#000000" points="71,-78 71,-130 199,-130 199,-78 71,-78"/>
</g>
<g id="clust4" class="cluster">
<title>cluster_CloukitPaginationModule_exports</title>
<polygon fill="none" stroke="#000000" points="16,-211 16,-263 218,-263 218,-211 16,-211"/>
</g>
<g id="clust7" class="cluster">
<title>cluster_DemoModule</title>
<polygon fill="none" stroke="#000000" stroke-dasharray="1,5" points="238,-138 238,-339 560,-339 560,-138 238,-138"/>
</g>
<g id="clust9" class="cluster">
<title>cluster_DemoModule_imports</title>
<polygon fill="none" stroke="#000000" points="246,-146 246,-198 552,-198 552,-146 246,-146"/>
</g>
<g id="clust10" class="cluster">
<title>cluster_DemoModule_exports</title>
<polygon fill="none" stroke="#000000" points="249,-279 249,-331 385,-331 385,-279 249,-279"/>
</g>
<!-- CommonModule -->
<g id="node1" class="node">
<title>CommonModule</title>
<polygon fill="#8dd3c7" stroke="#000000" points="190.6681,-122 187.6681,-126 166.6681,-126 163.6681,-122 79.3319,-122 79.3319,-86 190.6681,-86 190.6681,-122"/>
<text text-anchor="middle" x="135" y="-99.8" font-family="Times,serif" font-size="14.00" fill="#000000">CommonModule</text>
</g>
<!-- CloukitPaginationModule -->
<g id="node2" class="node">
<title>CloukitPaginationModule</title>
<polygon fill="#8dd3c7" stroke="#000000" points="197.9424,-190 194.9424,-194 173.9424,-194 170.9424,-190 36.0576,-190 36.0576,-154 197.9424,-154 197.9424,-190"/>
<text text-anchor="middle" x="117" y="-167.8" font-family="Times,serif" font-size="14.00" fill="#000000">CloukitPaginationModule</text>
</g>
<!-- CommonModule&#45;&gt;CloukitPaginationModule -->
<g id="edge1" class="edge">
<title>CommonModule&#45;&gt;CloukitPaginationModule</title>
<path fill="none" stroke="#000000" d="M135,-122.2228C135,-122.2228 135,-143.7269 135,-143.7269"/>
<polygon fill="#000000" stroke="#000000" points="131.5001,-143.7269 135,-153.7269 138.5001,-143.727 131.5001,-143.7269"/>
</g>
<!-- DemoModule -->
<g id="node6" class="node">
<title>DemoModule</title>
<polygon fill="#8dd3c7" stroke="#000000" points="363.7619,-255 360.7619,-259 339.7619,-259 336.7619,-255 270.2381,-255 270.2381,-219 363.7619,-219 363.7619,-255"/>
<text text-anchor="middle" x="317" y="-232.8" font-family="Times,serif" font-size="14.00" fill="#000000">DemoModule</text>
</g>
<!-- CommonModule&#45;&gt;DemoModule -->
<g id="edge3" class="edge">
<title>CommonModule&#45;&gt;DemoModule</title>
<path fill="none" stroke="#000000" d="M190.9158,-104C215.7591,-104 239.4901,-104 239.4901,-104 239.4901,-104 239.4901,-231 239.4901,-231 239.4901,-231 260.124,-231 260.124,-231"/>
<polygon fill="#000000" stroke="#000000" points="260.1241,-234.5001 270.124,-231 260.124,-227.5001 260.1241,-234.5001"/>
</g>
<!-- CloukitPaginationComponent  -->
<g id="node3" class="node">
<title>CloukitPaginationComponent </title>
<polygon fill="#fb8072" stroke="#000000" points="210.2246,-255 23.7754,-255 23.7754,-219 210.2246,-219 210.2246,-255"/>
<text text-anchor="middle" x="117" y="-232.8" font-family="Times,serif" font-size="14.00" fill="#000000">CloukitPaginationComponent </text>
</g>
<!-- CloukitPaginationModule&#45;&gt;CloukitPaginationComponent  -->
<g id="edge2" class="edge">
<title>CloukitPaginationModule&#45;&gt;CloukitPaginationComponent </title>
<path fill="none" stroke="#000000" stroke-dasharray="5,2" d="M117,-190.1061C117,-190.1061 117,-208.991 117,-208.991"/>
<polygon fill="#000000" stroke="#000000" points="113.5001,-208.9909 117,-218.991 120.5001,-208.991 113.5001,-208.9909"/>
</g>
<!-- CloukitPaginationModule&#45;&gt;DemoModule -->
<g id="edge5" class="edge">
<title>CloukitPaginationModule&#45;&gt;DemoModule</title>
<path fill="none" stroke="#000000" d="M197.9702,-172C213.4441,-172 224.9261,-172 224.9261,-172 224.9261,-172 224.9261,-243 224.9261,-243 224.9261,-243 260.1539,-243 260.1539,-243"/>
<polygon fill="#000000" stroke="#000000" points="260.1539,-246.5001 270.1539,-243 260.1538,-239.5001 260.1539,-246.5001"/>
</g>
<!-- CloukitThemeModule -->
<g id="node4" class="node">
<title>CloukitThemeModule</title>
<polygon fill="#8dd3c7" stroke="#000000" points="544.4313,-190 541.4313,-194 520.4313,-194 517.4313,-190 403.5687,-190 403.5687,-154 544.4313,-154 544.4313,-190"/>
<text text-anchor="middle" x="474" y="-167.8" font-family="Times,serif" font-size="14.00" fill="#000000">CloukitThemeModule</text>
</g>
<!-- CloukitThemeModule&#45;&gt;DemoModule -->
<g id="edge4" class="edge">
<title>CloukitThemeModule&#45;&gt;DemoModule</title>
<path fill="none" stroke="#000000" d="M474,-190.1061C474,-209.3391 474,-237 474,-237 474,-237 374.1052,-237 374.1052,-237"/>
<polygon fill="#000000" stroke="#000000" points="374.1052,-233.5001 364.1052,-237 374.1051,-240.5001 374.1052,-233.5001"/>
</g>
<!-- CloukitStoryModule -->
<g id="node5" class="node">
<title>CloukitStoryModule</title>
<polygon fill="#8dd3c7" stroke="#000000" points="385.892,-190 382.892,-194 361.892,-194 358.892,-190 254.108,-190 254.108,-154 385.892,-154 385.892,-190"/>
<text text-anchor="middle" x="320" y="-167.8" font-family="Times,serif" font-size="14.00" fill="#000000">CloukitStoryModule</text>
</g>
<!-- CloukitStoryModule&#45;&gt;DemoModule -->
<g id="edge6" class="edge">
<title>CloukitStoryModule&#45;&gt;DemoModule</title>
<path fill="none" stroke="#000000" d="M317,-190.1061C317,-190.1061 317,-208.991 317,-208.991"/>
<polygon fill="#000000" stroke="#000000" points="313.5001,-208.9909 317,-218.991 320.5001,-208.991 313.5001,-208.9909"/>
</g>
<!-- DemoComponent  -->
<g id="node7" class="node">
<title>DemoComponent </title>
<polygon fill="#fb8072" stroke="#000000" points="376.5442,-323 257.4558,-323 257.4558,-287 376.5442,-287 376.5442,-323"/>
<text text-anchor="middle" x="317" y="-300.8" font-family="Times,serif" font-size="14.00" fill="#000000">DemoComponent </text>
</g>
<!-- DemoModule&#45;&gt;DemoComponent  -->
<g id="edge7" class="edge">
<title>DemoModule&#45;&gt;DemoComponent </title>
<path fill="none" stroke="#000000" stroke-dasharray="5,2" d="M317,-255.2228C317,-255.2228 317,-276.7269 317,-276.7269"/>
<polygon fill="#000000" stroke="#000000" points="313.5001,-276.7269 317,-286.7269 320.5001,-276.727 313.5001,-276.7269"/>
</g>
</g>
</svg>
