<?xml version="1.0" encoding="UTF-8" standalone="no"?>
<!DOCTYPE svg PUBLIC "-//W3C//DTD SVG 1.1//EN"
 "http://www.w3.org/Graphics/SVG/1.1/DTD/svg11.dtd">
<!-- Generated by graphviz version 2.40.1 (20161225.0304)
 -->
<!-- Title: dependencies Pages: 1 -->
<svg width="504pt" height="355pt"
 viewBox="0.00 0.00 504.00 355.00" xmlns="http://www.w3.org/2000/svg" xmlns:xlink="http://www.w3.org/1999/xlink">
<g id="graph0" class="graph" transform="scale(1 1) rotate(0) translate(4 351)">
<title>dependencies</title>
<polygon fill="#ffffff" stroke="transparent" points="-4,4 -4,-351 500,-351 500,4 -4,4"/>
<text text-anchor="start" x="227.0091" y="-42.4" font-family="sans-serif" font-weight="bold" font-size="14.00" fill="#000000">Legend</text>
<polygon fill="#ffffb3" stroke="transparent" points="14,-10 14,-30 34,-30 34,-10 14,-10"/>
<text text-anchor="start" x="37.629" y="-15.4" font-family="sans-serif" font-size="14.00" fill="#000000"> &#160;Declarations</text>
<polygon fill="#8dd3c7" stroke="transparent" points="127,-10 127,-30 147,-30 147,-10 127,-10"/>
<text text-anchor="start" x="150.7251" y="-15.4" font-family="sans-serif" font-size="14.00" fill="#000000"> &#160;Module</text>
<polygon fill="#80b1d3" stroke="transparent" points="213,-10 213,-30 233,-30 233,-10 213,-10"/>
<text text-anchor="start" x="236.7812" y="-15.4" font-family="sans-serif" font-size="14.00" fill="#000000"> &#160;Bootstrap</text>
<polygon fill="#fdb462" stroke="transparent" points="310,-10 310,-30 330,-30 330,-10 310,-10"/>
<text text-anchor="start" x="333.6732" y="-15.4" font-family="sans-serif" font-size="14.00" fill="#000000"> &#160;Providers</text>
<polygon fill="#fb8072" stroke="transparent" points="406,-10 406,-30 426,-30 426,-10 406,-10"/>
<text text-anchor="start" x="429.7258" y="-15.4" font-family="sans-serif" font-size="14.00" fill="#000000"> &#160;Exports</text>
<g id="clust1" class="cluster">
<title>cluster_CloukitPaginationModule</title>
<polygon fill="none" stroke="#000000" stroke-dasharray="1,5" points="47,-70 47,-271 265,-271 265,-70 47,-70"/>
</g>
<g id="clust3" class="cluster">
<title>cluster_CloukitPaginationModule_imports</title>
<polygon fill="none" stroke="#000000" points="110,-78 110,-130 238,-130 238,-78 110,-78"/>
</g>
<g id="clust4" class="cluster">
<title>cluster_CloukitPaginationModule_exports</title>
<polygon fill="none" stroke="#000000" points="55,-211 55,-263 257,-263 257,-211 55,-211"/>
</g>
<g id="clust7" class="cluster">
<title>cluster_DemoModule</title>
<polygon fill="none" stroke="#000000" stroke-dasharray="1,5" points="277,-138 277,-339 449,-339 449,-138 277,-138"/>
</g>
<g id="clust9" class="cluster">
<title>cluster_DemoModule_imports</title>
<polygon fill="none" stroke="#000000" points="285,-146 285,-198 441,-198 441,-146 285,-146"/>
</g>
<g id="clust10" class="cluster">
<title>cluster_DemoModule_exports</title>
<polygon fill="none" stroke="#000000" points="285,-279 285,-331 421,-331 421,-279 285,-279"/>
</g>
<!-- CommonModule -->
<g id="node1" class="node">
<title>CommonModule</title>
<polygon fill="#8dd3c7" stroke="#000000" points="229.6681,-122 226.6681,-126 205.6681,-126 202.6681,-122 118.3319,-122 118.3319,-86 229.6681,-86 229.6681,-122"/>
<text text-anchor="middle" x="174" y="-99.8" font-family="Times,serif" font-size="14.00" fill="#000000">CommonModule</text>
</g>
<!-- CloukitPaginationModule -->
<g id="node2" class="node">
<title>CloukitPaginationModule</title>
<polygon fill="#8dd3c7" stroke="#000000" points="236.9424,-190 233.9424,-194 212.9424,-194 209.9424,-190 75.0576,-190 75.0576,-154 236.9424,-154 236.9424,-190"/>
<text text-anchor="middle" x="156" y="-167.8" font-family="Times,serif" font-size="14.00" fill="#000000">CloukitPaginationModule</text>
</g>
<!-- CommonModule&#45;&gt;CloukitPaginationModule -->
<g id="edge1" class="edge">
<title>CommonModule&#45;&gt;CloukitPaginationModule</title>
<path fill="none" stroke="#000000" d="M174,-122.2228C174,-122.2228 174,-143.7269 174,-143.7269"/>
<polygon fill="#000000" stroke="#000000" points="170.5001,-143.7269 174,-153.7269 177.5001,-143.727 170.5001,-143.7269"/>
</g>
<!-- DemoModule -->
<g id="node5" class="node">
<title>DemoModule</title>
<polygon fill="#8dd3c7" stroke="#000000" points="388.7619,-255 385.7619,-259 364.7619,-259 361.7619,-255 295.2381,-255 295.2381,-219 388.7619,-219 388.7619,-255"/>
<text text-anchor="middle" x="342" y="-232.8" font-family="Times,serif" font-size="14.00" fill="#000000">DemoModule</text>
</g>
<!-- CommonModule&#45;&gt;DemoModule -->
<g id="edge3" class="edge">
<title>CommonModule&#45;&gt;DemoModule</title>
<path fill="none" stroke="#000000" d="M229.8197,-104C254.6204,-104 278.3105,-104 278.3105,-104 278.3105,-104 278.3105,-231 278.3105,-231 278.3105,-231 285.0442,-231 285.0442,-231"/>
<polygon fill="#000000" stroke="#000000" points="285.0442,-234.5001 295.0442,-231 285.0442,-227.5001 285.0442,-234.5001"/>
</g>
<!-- CloukitPaginationComponent  -->
<g id="node3" class="node">
<title>CloukitPaginationComponent </title>
<polygon fill="#fb8072" stroke="#000000" points="249.2246,-255 62.7754,-255 62.7754,-219 249.2246,-219 249.2246,-255"/>
<text text-anchor="middle" x="156" y="-232.8" font-family="Times,serif" font-size="14.00" fill="#000000">CloukitPaginationComponent </text>
</g>
<!-- CloukitPaginationModule&#45;&gt;CloukitPaginationComponent  -->
<g id="edge2" class="edge">
<title>CloukitPaginationModule&#45;&gt;CloukitPaginationComponent </title>
<path fill="none" stroke="#000000" stroke-dasharray="5,2" d="M156,-190.1061C156,-190.1061 156,-208.991 156,-208.991"/>
<polygon fill="#000000" stroke="#000000" points="152.5001,-208.9909 156,-218.991 159.5001,-208.991 152.5001,-208.9909"/>
</g>
<!-- CloukitPaginationModule&#45;&gt;DemoModule -->
<g id="edge5" class="edge">
<title>CloukitPaginationModule&#45;&gt;DemoModule</title>
<path fill="none" stroke="#000000" d="M236.9029,-172C252.3639,-172 263.8364,-172 263.8364,-172 263.8364,-172 263.8364,-243 263.8364,-243 263.8364,-243 285.1781,-243 285.1781,-243"/>
<polygon fill="#000000" stroke="#000000" points="285.1782,-246.5001 295.1781,-243 285.1781,-239.5001 285.1782,-246.5001"/>
</g>
<!-- CloukitThemeModule -->
<g id="node4" class="node">
<title>CloukitThemeModule</title>
<polygon fill="#8dd3c7" stroke="#000000" points="433.4313,-190 430.4313,-194 409.4313,-194 406.4313,-190 292.5687,-190 292.5687,-154 433.4313,-154 433.4313,-190"/>
<text text-anchor="middle" x="363" y="-167.8" font-family="Times,serif" font-size="14.00" fill="#000000">CloukitThemeModule</text>
</g>
<!-- CloukitThemeModule&#45;&gt;DemoModule -->
<g id="edge4" class="edge">
<title>CloukitThemeModule&#45;&gt;DemoModule</title>
<path fill="none" stroke="#000000" d="M342,-190.1061C342,-190.1061 342,-208.991 342,-208.991"/>
<polygon fill="#000000" stroke="#000000" points="338.5001,-208.9909 342,-218.991 345.5001,-208.991 338.5001,-208.9909"/>
</g>
<!-- DemoComponent  -->
<g id="node6" class="node">
<title>DemoComponent </title>
<polygon fill="#fb8072" stroke="#000000" points="412.5442,-323 293.4558,-323 293.4558,-287 412.5442,-287 412.5442,-323"/>
<text text-anchor="middle" x="353" y="-300.8" font-family="Times,serif" font-size="14.00" fill="#000000">DemoComponent </text>
</g>
<!-- DemoModule&#45;&gt;DemoComponent  -->
<g id="edge6" class="edge">
<title>DemoModule&#45;&gt;DemoComponent </title>
<path fill="none" stroke="#000000" stroke-dasharray="5,2" d="M342,-255.2228C342,-255.2228 342,-276.7269 342,-276.7269"/>
<polygon fill="#000000" stroke="#000000" points="338.5001,-276.7269 342,-286.7269 345.5001,-276.727 338.5001,-276.7269"/>
</g>
</g>
</svg>
