<?xml version="1.0" encoding="UTF-8" standalone="no"?>
<!DOCTYPE svg PUBLIC "-//W3C//DTD SVG 1.1//EN"
 "http://www.w3.org/Graphics/SVG/1.1/DTD/svg11.dtd">
<!-- Generated by graphviz version 2.40.1 (20161225.0304)
 -->
<!-- Title: dependencies Pages: 1 -->
<svg width="646pt" height="284pt"
 viewBox="0.00 0.00 646.00 284.00" xmlns="http://www.w3.org/2000/svg" xmlns:xlink="http://www.w3.org/1999/xlink">
<g id="graph0" class="graph" transform="scale(1 1) rotate(0) translate(4 280)">
<title>dependencies</title>
<polygon fill="#ffffff" stroke="transparent" points="-4,4 -4,-280 642,-280 642,4 -4,4"/>
<text text-anchor="start" x="298.0091" y="-42.4" font-family="sans-serif" font-weight="bold" font-size="14.00" fill="#000000">Legend</text>
<polygon fill="#ffffb3" stroke="transparent" points="85,-10 85,-30 105,-30 105,-10 85,-10"/>
<text text-anchor="start" x="108.629" y="-15.4" font-family="sans-serif" font-size="14.00" fill="#000000"> &#160;Declarations</text>
<polygon fill="#8dd3c7" stroke="transparent" points="198,-10 198,-30 218,-30 218,-10 198,-10"/>
<text text-anchor="start" x="221.7251" y="-15.4" font-family="sans-serif" font-size="14.00" fill="#000000"> &#160;Module</text>
<polygon fill="#80b1d3" stroke="transparent" points="284,-10 284,-30 304,-30 304,-10 284,-10"/>
<text text-anchor="start" x="307.7812" y="-15.4" font-family="sans-serif" font-size="14.00" fill="#000000"> &#160;Bootstrap</text>
<polygon fill="#fdb462" stroke="transparent" points="381,-10 381,-30 401,-30 401,-10 381,-10"/>
<text text-anchor="start" x="404.6732" y="-15.4" font-family="sans-serif" font-size="14.00" fill="#000000"> &#160;Providers</text>
<polygon fill="#fb8072" stroke="transparent" points="477,-10 477,-30 497,-30 497,-10 477,-10"/>
<text text-anchor="start" x="500.7258" y="-15.4" font-family="sans-serif" font-size="14.00" fill="#000000"> &#160;Exports</text>
<g id="clust1" class="cluster">
<title>cluster_DemoModule</title>
<polygon fill="none" stroke="#000000" stroke-dasharray="1,5" points="8,-70 8,-268 630,-268 630,-70 8,-70"/>
</g>
<g id="clust2" class="cluster">
<title>cluster_DemoModule_declarations</title>
<polygon fill="none" stroke="#000000" points="490,-78 490,-130 622,-130 622,-78 490,-78"/>
</g>
<g id="clust4" class="cluster">
<title>cluster_DemoModule_imports</title>
<polygon fill="none" stroke="#000000" points="16,-78 16,-130 482,-130 482,-78 16,-78"/>
</g>
<g id="clust5" class="cluster">
<title>cluster_DemoModule_exports</title>
<polygon fill="none" stroke="#000000" points="278,-208 278,-260 414,-260 414,-208 278,-208"/>
</g>
<!-- DemoComponent -->
<g id="node1" class="node">
<title>DemoComponent</title>
<polygon fill="#ffffb3" stroke="#000000" points="613.5451,-122 498.4549,-122 498.4549,-86 613.5451,-86 613.5451,-122"/>
<text text-anchor="middle" x="556" y="-99.8" font-family="Times,serif" font-size="14.00" fill="#000000">DemoComponent</text>
</g>
<!-- DemoModule -->
<g id="node2" class="node">
<title>DemoModule</title>
<polygon fill="#8dd3c7" stroke="#000000" points="392.7619,-187 389.7619,-191 368.7619,-191 365.7619,-187 299.2381,-187 299.2381,-151 392.7619,-151 392.7619,-187"/>
<text text-anchor="middle" x="346" y="-164.8" font-family="Times,serif" font-size="14.00" fill="#000000">DemoModule</text>
</g>
<!-- DemoComponent&#45;&gt;DemoModule -->
<g id="edge1" class="edge">
<title>DemoComponent&#45;&gt;DemoModule</title>
<path fill="none" stroke="#000000" d="M556,-122.1061C556,-141.3391 556,-169 556,-169 556,-169 402.8667,-169 402.8667,-169"/>
<polygon fill="#000000" stroke="#000000" points="402.8668,-165.5001 392.8667,-169 402.8667,-172.5001 402.8668,-165.5001"/>
</g>
<!-- DemoComponent  -->
<g id="node6" class="node">
<title>DemoComponent </title>
<polygon fill="#fb8072" stroke="#000000" points="405.5442,-252 286.4558,-252 286.4558,-216 405.5442,-216 405.5442,-252"/>
<text text-anchor="middle" x="346" y="-229.8" font-family="Times,serif" font-size="14.00" fill="#000000">DemoComponent </text>
</g>
<!-- DemoModule&#45;&gt;DemoComponent  -->
<g id="edge5" class="edge">
<title>DemoModule&#45;&gt;DemoComponent </title>
<path fill="none" stroke="#000000" stroke-dasharray="5,2" d="M346,-187.1061C346,-187.1061 346,-205.991 346,-205.991"/>
<polygon fill="#000000" stroke="#000000" points="342.5001,-205.9909 346,-215.991 349.5001,-205.991 342.5001,-205.9909"/>
</g>
<!-- CommonModule -->
<g id="node3" class="node">
<title>CommonModule</title>
<polygon fill="#8dd3c7" stroke="#000000" points="473.6681,-122 470.6681,-126 449.6681,-126 446.6681,-122 362.3319,-122 362.3319,-86 473.6681,-86 473.6681,-122"/>
<text text-anchor="middle" x="418" y="-99.8" font-family="Times,serif" font-size="14.00" fill="#000000">CommonModule</text>
</g>
<!-- CommonModule&#45;&gt;DemoModule -->
<g id="edge2" class="edge">
<title>CommonModule&#45;&gt;DemoModule</title>
<path fill="none" stroke="#000000" d="M377.5235,-122.1061C377.5235,-122.1061 377.5235,-140.991 377.5235,-140.991"/>
<polygon fill="#000000" stroke="#000000" points="374.0236,-140.9909 377.5235,-150.991 381.0236,-140.991 374.0236,-140.9909"/>
</g>
<!-- CloukitThemeModule -->
<g id="node4" class="node">
<title>CloukitThemeModule</title>
<polygon fill="#8dd3c7" stroke="#000000" points="344.4313,-122 341.4313,-126 320.4313,-126 317.4313,-122 203.5687,-122 203.5687,-86 344.4313,-86 344.4313,-122"/>
<text text-anchor="middle" x="274" y="-99.8" font-family="Times,serif" font-size="14.00" fill="#000000">CloukitThemeModule</text>
</g>
<!-- CloukitThemeModule&#45;&gt;DemoModule -->
<g id="edge3" class="edge">
<title>CloukitThemeModule&#45;&gt;DemoModule</title>
<path fill="none" stroke="#000000" d="M321.6673,-122.1061C321.6673,-122.1061 321.6673,-140.991 321.6673,-140.991"/>
<polygon fill="#000000" stroke="#000000" points="318.1673,-140.9909 321.6673,-150.991 325.1673,-140.991 318.1673,-140.9909"/>
</g>
<!-- CloukitPaginationModule -->
<g id="node5" class="node">
<title>CloukitPaginationModule</title>
<polygon fill="#8dd3c7" stroke="#000000" points="185.9424,-122 182.9424,-126 161.9424,-126 158.9424,-122 24.0576,-122 24.0576,-86 185.9424,-86 185.9424,-122"/>
<text text-anchor="middle" x="105" y="-99.8" font-family="Times,serif" font-size="14.00" fill="#000000">CloukitPaginationModule</text>
</g>
<!-- CloukitPaginationModule&#45;&gt;DemoModule -->
<g id="edge4" class="edge">
<title>CloukitPaginationModule&#45;&gt;DemoModule</title>
<path fill="none" stroke="#000000" d="M105,-122.1061C105,-141.3391 105,-169 105,-169 105,-169 288.9607,-169 288.9607,-169"/>
<polygon fill="#000000" stroke="#000000" points="288.9607,-172.5001 298.9607,-169 288.9606,-165.5001 288.9607,-172.5001"/>
</g>
</g>
</svg>
