<!--
  * @license MIT
  * Copyright (c) 2017 Bernhard Grünewaldt - codeclou.io
  * https://github.com/cloukit/legal
-->
<svg width="705" height="437" viewBox="0 0 705 437" xmlns="http://www.w3.org/2000/svg" style="background:#fff">
  <defs>
    <style type="text/css">@import url(https://cloukit.github.io/cdn-static/css/webfonts.css);</style>
  </defs>
  <g fill="none" fill-rule="evenodd">
    <path stroke="#777" d="M15.5 17.329h676V421.5h-676z"/>
    <text transform="translate(36 36)" fill="#710ECC" font-family="SourceSansPro-Light, Source Sans Pro" font-size="30" font-weight="300" letter-spacing=".333">
      <tspan x="0" y="30">Pagination Component decomposed</tspan>
    </text>
    <text font-family="SourceSansPro-Light, Source Sans Pro" font-size="20" font-weight="300" letter-spacing=".333" fill="#710ECC">
      <tspan x="36" y="131">Elements</tspan>
    </text>
    <text font-family="SourceSansPro-Light, Source Sans Pro" font-size="20" font-weight="300" letter-spacing=".333" fill="#710ECC">
      <tspan x="38" y="312">Box Elements</tspan>
    </text>
    <path d="M240.5 362.5h-49" stroke="#710ECC" opacity=".2" stroke-linecap="square"/>
    <text font-family="SourceSansPro-Light, Source Sans Pro" font-size="20" font-weight="300" letter-spacing=".333" fill="#777">
      <tspan x="110" y="368">wrapper</tspan>
    </text>
    <text font-family="SourceSansPro-Light, Source Sans Pro" font-size="20" font-weight="300" letter-spacing=".333" fill="#777">
      <tspan x="109" y="174">button</tspan>
    </text>
    <path fill="#225FCB" d="M332 201h27v35h-27zM241.328 229.5v-22.316h5.621c1.265 0 2.4.107 3.404.322 1.004.214 1.851.57 2.54 1.066a4.926 4.926 0 0 1 1.591 1.93c.373.79.559 1.762.559 2.913 0 2.19-.7 3.821-2.1 4.893-1.4 1.073-3.352 1.609-5.858 1.609h-4.2v9.584h-1.557zm1.558-10.904h3.826c2.28 0 3.974-.406 5.08-1.219 1.106-.813 1.66-2.133 1.66-3.962 0-1.874-.57-3.16-1.71-3.86-1.14-.7-2.862-1.05-5.165-1.05h-3.691v10.091zm17.175 10.905v-16.255h1.286l.136 3.014h.101c.542-1.016 1.203-1.84 1.982-2.472.778-.633 1.653-.949 2.624-.949.316 0 .598.023.847.068.248.045.508.136.779.271l-.34 1.355a3.315 3.315 0 0 0-.71-.22 4.889 4.889 0 0 0-.78-.051c-.722 0-1.484.31-2.285.93-.801.622-1.518 1.7-2.15 3.235V229.5h-1.49zm16.87.406a7.49 7.49 0 0 1-2.93-.576 6.791 6.791 0 0 1-2.387-1.676c-.677-.734-1.214-1.626-1.609-2.675-.395-1.05-.592-2.241-.592-3.573 0-1.332.197-2.529.592-3.59.395-1.06.926-1.958 1.592-2.692a7.11 7.11 0 0 1 2.269-1.693 6.14 6.14 0 0 1 2.624-.593c1.942 0 3.466.655 4.572 1.964 1.106 1.31 1.66 3.161 1.66 5.554v.61c0 .203-.023.406-.068.61h-11.717a9.45 9.45 0 0 0 .474 2.827c.293.87.705 1.614 1.236 2.235a5.643 5.643 0 0 0 1.913 1.456c.745.35 1.58.525 2.506.525.88 0 1.676-.13 2.388-.39a7.813 7.813 0 0 0 1.98-1.066l.61 1.151c-.655.384-1.371.745-2.15 1.084-.78.339-1.767.508-2.963.508zm-5.994-9.55h10.362c0-2.1-.429-3.663-1.287-4.69-.858-1.027-2.02-1.54-3.488-1.54-.7 0-1.366.14-1.998.422a5.293 5.293 0 0 0-1.71 1.237 6.656 6.656 0 0 0-1.253 1.964c-.327.767-.536 1.636-.626 2.607zm20.29 9.144l-6.096-16.255h1.626l3.657 10.193c.249.79.52 1.58.813 2.37.294.79.564 1.558.813 2.303h.135c.271-.745.548-1.512.83-2.303.282-.79.559-1.58.83-2.37l3.657-10.193h1.524l-6.028 16.255h-1.761zm18.433 0v-1.321h5.08v-17.948h-3.86v-1.016c.88-.158 1.665-.35 2.353-.576a10.042 10.042 0 0 0 1.812-.779h1.219v20.319h4.707v1.32h-11.31z"/>
    <path d="M338.902 229.5v-.948a224.387 224.387 0 0 0 4.674-4.86c1.332-1.433 2.443-2.742 3.335-3.927.892-1.186 1.558-2.28 1.998-3.285.44-1.005.66-1.981.66-2.93 0-1.354-.378-2.494-1.134-3.42-.756-.925-1.947-1.388-3.573-1.388-.993 0-1.919.27-2.776.813a9.228 9.228 0 0 0-2.27 2.031l-.981-.948c.812-.903 1.71-1.66 2.692-2.269.982-.61 2.139-.914 3.47-.914 1.942 0 3.444.553 4.505 1.66 1.06 1.106 1.591 2.573 1.591 4.402 0 1.083-.237 2.161-.71 3.234-.475 1.072-1.14 2.2-1.999 3.386-.858 1.185-1.902 2.45-3.132 3.793a417.595 417.595 0 0 1-4.08 4.385c.586-.045 1.19-.084 1.811-.118a33.28 33.28 0 0 1 1.812-.051h7.382v1.355h-13.275z" fill="#FFF"/>
    <path d="M376.068 229.907c-.858 0-1.636-.09-2.336-.271a8.564 8.564 0 0 1-3.37-1.693 12.25 12.25 0 0 1-1.168-1.084l.88-1.05c.316.362.666.706 1.05 1.033a7.32 7.32 0 0 0 2.93 1.507c.598.158 1.27.237 2.014.237.723 0 1.394-.113 2.015-.338a4.706 4.706 0 0 0 1.609-.966c.451-.417.801-.92 1.05-1.507.248-.586.372-1.241.372-1.964 0-.745-.141-1.422-.423-2.031-.282-.61-.723-1.135-1.32-1.575-.6-.44-1.378-.785-2.338-1.033-.959-.248-2.116-.373-3.47-.373v-1.32c1.241 0 2.297-.124 3.166-.373.869-.248 1.569-.581 2.1-.999.53-.417.914-.914 1.15-1.49a4.8 4.8 0 0 0 .356-1.845c0-1.22-.395-2.196-1.185-2.93-.79-.733-1.851-1.1-3.183-1.1-1.016 0-1.942.231-2.777.694a9.303 9.303 0 0 0-2.201 1.676l-.88-1.016a11.695 11.695 0 0 1 2.54-1.862c.947-.52 2.053-.78 3.318-.78.835 0 1.614.12 2.336.356a5.682 5.682 0 0 1 1.88 1.016c.53.44.948.982 1.253 1.626.305.643.457 1.383.457 2.218 0 1.422-.39 2.568-1.168 3.437-.78.87-1.767 1.507-2.963 1.914v.135a6.525 6.525 0 0 1 3.454 1.896 5.353 5.353 0 0 1 1.066 1.643c.26.62.39 1.315.39 2.083 0 .948-.17 1.8-.508 2.556a5.608 5.608 0 0 1-1.405 1.93 6.26 6.26 0 0 1-2.1 1.22 7.746 7.746 0 0 1-2.59.423zM421.195 229.5v-22.316h1.625l9.414 15.747 2.506 4.436h.136l-.136-3.25a78.083 78.083 0 0 1-.067-3.252v-13.681h1.49v22.317h-1.626l-9.414-15.747-2.506-4.437h-.135c.045 1.084.09 2.14.135 3.167a72.13 72.13 0 0 1 .068 3.166v13.85h-1.49zM449.037 229.907a7.49 7.49 0 0 1-2.93-.576 6.791 6.791 0 0 1-2.387-1.676c-.677-.734-1.213-1.626-1.608-2.675-.396-1.05-.593-2.241-.593-3.573 0-1.332.197-2.529.593-3.59.395-1.06.925-1.958 1.591-2.692a7.11 7.11 0 0 1 2.269-1.693 6.14 6.14 0 0 1 2.625-.593c1.941 0 3.465.655 4.571 1.964 1.106 1.31 1.66 3.161 1.66 5.554v.61c0 .203-.023.406-.068.61h-11.717a9.45 9.45 0 0 0 .474 2.827c.293.87.705 1.614 1.236 2.235a5.643 5.643 0 0 0 1.913 1.456c.745.35 1.58.525 2.506.525.88 0 1.676-.13 2.388-.39a7.813 7.813 0 0 0 1.98-1.066l.61 1.151c-.654.384-1.371.745-2.15 1.084-.779.339-1.767.508-2.963.508z" fill="#225FCB"/>
    <path d="M443.043 220.357h10.362c0-2.1-.429-3.663-1.287-4.69-.857-1.027-2.02-1.54-3.488-1.54-.7 0-1.365.14-1.998.422a5.293 5.293 0 0 0-1.71 1.237 6.656 6.656 0 0 0-1.253 1.964c-.327.767-.536 1.636-.626 2.607z" fill="#FFF"/>
    <path d="M456.899 229.5l5.52-8.5-5.08-7.754H459l2.64 4.131c.272.452.548.898.83 1.338.283.44.582.886.898 1.337h.135c.294-.451.57-.897.83-1.337.26-.44.536-.886.83-1.338l2.54-4.131h1.557l-5.045 7.89 5.52 8.365h-1.66l-2.878-4.437a90.025 90.025 0 0 0-.949-1.524 32.815 32.815 0 0 0-.982-1.456h-.135c-.316.474-.627.96-.931 1.456-.305.497-.616 1.005-.932 1.524l-2.776 4.437h-1.592zM477.359 229.907c-.79 0-1.445-.119-1.965-.356a3.144 3.144 0 0 1-1.253-.999c-.316-.429-.536-.948-.66-1.557a10.02 10.02 0 0 1-.186-1.998v-10.464h-2.54v-1.152l2.574-.135.203-4.707h1.287v4.707h4.707v1.287h-4.707v10.6c0 .518.04.987.118 1.404.08.418.22.78.424 1.084.203.305.48.542.83.711.35.17.806.254 1.37.254.317 0 .661-.05 1.034-.152.372-.102.705-.22.999-.356l.406 1.22c-.474.18-.948.327-1.422.44-.474.112-.88.169-1.22.169z" fill="#225FCB"/>
    <path d="M395.3 230.36c-.34 0-.64-.12-.9-.36s-.39-.57-.39-.99c0-.44.13-.78.39-1.02s.56-.36.9-.36c.34 0 .635.12.885.36s.375.58.375 1.02c0 .42-.125.75-.375.99s-.545.36-.885.36zm7.07 0c-.34 0-.64-.12-.9-.36s-.39-.57-.39-.99c0-.44.13-.78.39-1.02s.56-.36.9-.36c.34 0 .635.12.885.36s.375.58.375 1.02c0 .42-.125.75-.375.99s-.545.36-.885.36zm7.07 0c-.34 0-.64-.12-.9-.36s-.39-.57-.39-.99c0-.44.13-.78.39-1.02s.56-.36.9-.36c.34 0 .635.12.885.36s.375.58.375 1.02c0 .42-.125.75-.375.99s-.545.36-.885.36z" fill="#555"/>
    <path stroke="#710ECC" d="M244.5 327.5h219v67h-219z"/>
    <path fill="#EFEFEF" d="M255 346h53v32h-53zM318 346h17v32h-17zM345 346h17v32h-17zM371 346h17v32h-17zM400 346h53v32h-53z"/>
    <path d="M184.5 168.5h263M343.5 189.5v-20" stroke="#710ECC" opacity=".2" stroke-linecap="square"/>
    <text font-family="SourceSansPro-Light, Source Sans Pro" font-size="20" font-weight="300" letter-spacing=".333" fill="#777">
      <tspan x="527" y="271">filler</tspan>
    </text>
    <path d="M512.5 265.5h-110M401.5 241.5v24M375.5 189.5v-20M447.5 189.5v-20M313.5 189.5v-20M275.5 189.5v-20" stroke="#710ECC" opacity=".2" stroke-linecap="square"/>
  </g>
</svg>
