<?xml version="1.0" encoding="UTF-8" standalone="no"?>
<!DOCTYPE svg PUBLIC "-//W3C//DTD SVG 1.1//EN"
 "http://www.w3.org/Graphics/SVG/1.1/DTD/svg11.dtd">
<!-- Generated by graphviz version 2.40.1 (20161225.0304)
 -->
<!-- Title: dependencies Pages: 1 -->
<svg width="615pt" height="284pt"
 viewBox="0.00 0.00 615.00 284.00" xmlns="http://www.w3.org/2000/svg" xmlns:xlink="http://www.w3.org/1999/xlink">
<g id="graph0" class="graph" transform="scale(1 1) rotate(0) translate(4 280)">
<title>dependencies</title>
<polygon fill="#ffffff" stroke="transparent" points="-4,4 -4,-280 611,-280 611,4 -4,4"/>
<text text-anchor="start" x="282.5091" y="-42.4" font-family="sans-serif" font-weight="bold" font-size="14.00" fill="#000000">Legend</text>
<polygon fill="#ffffb3" stroke="transparent" points="69.5,-10 69.5,-30 89.5,-30 89.5,-10 69.5,-10"/>
<text text-anchor="start" x="93.129" y="-15.4" font-family="sans-serif" font-size="14.00" fill="#000000"> &#160;Declarations</text>
<polygon fill="#8dd3c7" stroke="transparent" points="182.5,-10 182.5,-30 202.5,-30 202.5,-10 182.5,-10"/>
<text text-anchor="start" x="206.2251" y="-15.4" font-family="sans-serif" font-size="14.00" fill="#000000"> &#160;Module</text>
<polygon fill="#80b1d3" stroke="transparent" points="268.5,-10 268.5,-30 288.5,-30 288.5,-10 268.5,-10"/>
<text text-anchor="start" x="292.2812" y="-15.4" font-family="sans-serif" font-size="14.00" fill="#000000"> &#160;Bootstrap</text>
<polygon fill="#fdb462" stroke="transparent" points="365.5,-10 365.5,-30 385.5,-30 385.5,-10 365.5,-10"/>
<text text-anchor="start" x="389.1732" y="-15.4" font-family="sans-serif" font-size="14.00" fill="#000000"> &#160;Providers</text>
<polygon fill="#fb8072" stroke="transparent" points="461.5,-10 461.5,-30 481.5,-30 481.5,-10 461.5,-10"/>
<text text-anchor="start" x="485.2258" y="-15.4" font-family="sans-serif" font-size="14.00" fill="#000000"> &#160;Exports</text>
<g id="clust1" class="cluster">
<title>cluster_CloukitPaginationModule</title>
<polygon fill="none" stroke="#000000" stroke-dasharray="1,5" points="8,-70 8,-268 599,-268 599,-70 8,-70"/>
</g>
<g id="clust2" class="cluster">
<title>cluster_CloukitPaginationModule_declarations</title>
<polygon fill="none" stroke="#000000" points="152,-78 152,-130 591,-130 591,-78 152,-78"/>
</g>
<g id="clust5" class="cluster">
<title>cluster_CloukitPaginationModule_imports</title>
<polygon fill="none" stroke="#000000" points="16,-78 16,-130 144,-130 144,-78 16,-78"/>
</g>
<g id="clust6" class="cluster">
<title>cluster_CloukitPaginationModule_exports</title>
<polygon fill="none" stroke="#000000" points="170,-208 170,-260 372,-260 372,-208 170,-208"/>
</g>
<!-- CloukitPaginationComponent -->
<g id="node1" class="node">
<title>CloukitPaginationComponent</title>
<polygon fill="#ffffb3" stroke="#000000" points="582.7245,-122 399.2755,-122 399.2755,-86 582.7245,-86 582.7245,-122"/>
<text text-anchor="middle" x="491" y="-99.8" font-family="Times,serif" font-size="14.00" fill="#000000">CloukitPaginationComponent</text>
</g>
<!-- CloukitPaginationModule -->
<g id="node3" class="node">
<title>CloukitPaginationModule</title>
<polygon fill="#8dd3c7" stroke="#000000" points="351.9424,-187 348.9424,-191 327.9424,-191 324.9424,-187 190.0576,-187 190.0576,-151 351.9424,-151 351.9424,-187"/>
<text text-anchor="middle" x="271" y="-164.8" font-family="Times,serif" font-size="14.00" fill="#000000">CloukitPaginationModule</text>
</g>
<!-- CloukitPaginationComponent&#45;&gt;CloukitPaginationModule -->
<g id="edge1" class="edge">
<title>CloukitPaginationComponent&#45;&gt;CloukitPaginationModule</title>
<path fill="none" stroke="#000000" d="M491,-122.1061C491,-141.3391 491,-169 491,-169 491,-169 361.9826,-169 361.9826,-169"/>
<polygon fill="#000000" stroke="#000000" points="361.9827,-165.5001 351.9826,-169 361.9826,-172.5001 361.9827,-165.5001"/>
</g>
<!-- CloukitPaginationButtonComponent -->
<g id="node2" class="node">
<title>CloukitPaginationButtonComponent</title>
<polygon fill="#ffffb3" stroke="#000000" points="381.8425,-122 160.1575,-122 160.1575,-86 381.8425,-86 381.8425,-122"/>
<text text-anchor="middle" x="271" y="-99.8" font-family="Times,serif" font-size="14.00" fill="#000000">CloukitPaginationButtonComponent</text>
</g>
<!-- CloukitPaginationButtonComponent&#45;&gt;CloukitPaginationModule -->
<g id="edge2" class="edge">
<title>CloukitPaginationButtonComponent&#45;&gt;CloukitPaginationModule</title>
<path fill="none" stroke="#000000" d="M271,-122.1061C271,-122.1061 271,-140.991 271,-140.991"/>
<polygon fill="#000000" stroke="#000000" points="267.5001,-140.9909 271,-150.991 274.5001,-140.991 267.5001,-140.9909"/>
</g>
<!-- CloukitPaginationComponent  -->
<g id="node5" class="node">
<title>CloukitPaginationComponent </title>
<polygon fill="#fb8072" stroke="#000000" points="364.2246,-252 177.7754,-252 177.7754,-216 364.2246,-216 364.2246,-252"/>
<text text-anchor="middle" x="271" y="-229.8" font-family="Times,serif" font-size="14.00" fill="#000000">CloukitPaginationComponent </text>
</g>
<!-- CloukitPaginationModule&#45;&gt;CloukitPaginationComponent  -->
<g id="edge4" class="edge">
<title>CloukitPaginationModule&#45;&gt;CloukitPaginationComponent </title>
<path fill="none" stroke="#000000" stroke-dasharray="5,2" d="M271,-187.1061C271,-187.1061 271,-205.991 271,-205.991"/>
<polygon fill="#000000" stroke="#000000" points="267.5001,-205.9909 271,-215.991 274.5001,-205.991 267.5001,-205.9909"/>
</g>
<!-- CommonModule -->
<g id="node4" class="node">
<title>CommonModule</title>
<polygon fill="#8dd3c7" stroke="#000000" points="135.6681,-122 132.6681,-126 111.6681,-126 108.6681,-122 24.3319,-122 24.3319,-86 135.6681,-86 135.6681,-122"/>
<text text-anchor="middle" x="80" y="-99.8" font-family="Times,serif" font-size="14.00" fill="#000000">CommonModule</text>
</g>
<!-- CommonModule&#45;&gt;CloukitPaginationModule -->
<g id="edge3" class="edge">
<title>CommonModule&#45;&gt;CloukitPaginationModule</title>
<path fill="none" stroke="#000000" d="M80,-122.1061C80,-141.3391 80,-169 80,-169 80,-169 180.2756,-169 180.2756,-169"/>
<polygon fill="#000000" stroke="#000000" points="180.2757,-172.5001 190.2756,-169 180.2756,-165.5001 180.2757,-172.5001"/>
</g>
</g>
</svg>
