<?xml version="1.0" encoding="UTF-8" standalone="no"?>
<!DOCTYPE svg PUBLIC "-//W3C//DTD SVG 1.1//EN"
 "http://www.w3.org/Graphics/SVG/1.1/DTD/svg11.dtd">
<!-- Generated by graphviz version 2.40.1 (20161225.0304)
 -->
<!-- Title: dependencies Pages: 1 -->
<svg width="504pt" height="284pt"
 viewBox="0.00 0.00 504.00 284.00" xmlns="http://www.w3.org/2000/svg" xmlns:xlink="http://www.w3.org/1999/xlink">
<g id="graph0" class="graph" transform="scale(1 1) rotate(0) translate(4 280)">
<title>dependencies</title>
<polygon fill="#ffffff" stroke="transparent" points="-4,4 -4,-280 500,-280 500,4 -4,4"/>
<text text-anchor="start" x="227.0091" y="-42.4" font-family="sans-serif" font-weight="bold" font-size="14.00" fill="#000000">Legend</text>
<polygon fill="#ffffb3" stroke="transparent" points="14,-10 14,-30 34,-30 34,-10 14,-10"/>
<text text-anchor="start" x="37.629" y="-15.4" font-family="sans-serif" font-size="14.00" fill="#000000"> &#160;Declarations</text>
<polygon fill="#8dd3c7" stroke="transparent" points="127,-10 127,-30 147,-30 147,-10 127,-10"/>
<text text-anchor="start" x="150.7251" y="-15.4" font-family="sans-serif" font-size="14.00" fill="#000000"> &#160;Module</text>
<polygon fill="#80b1d3" stroke="transparent" points="213,-10 213,-30 233,-30 233,-10 213,-10"/>
<text text-anchor="start" x="236.7812" y="-15.4" font-family="sans-serif" font-size="14.00" fill="#000000"> &#160;Bootstrap</text>
<polygon fill="#fdb462" stroke="transparent" points="310,-10 310,-30 330,-30 330,-10 310,-10"/>
<text text-anchor="start" x="333.6732" y="-15.4" font-family="sans-serif" font-size="14.00" fill="#000000"> &#160;Providers</text>
<polygon fill="#fb8072" stroke="transparent" points="406,-10 406,-30 426,-30 426,-10 406,-10"/>
<text text-anchor="start" x="429.7258" y="-15.4" font-family="sans-serif" font-size="14.00" fill="#000000"> &#160;Exports</text>
<g id="clust1" class="cluster">
<title>cluster_CloukitPaginationModule</title>
<polygon fill="none" stroke="#000000" stroke-dasharray="1,5" points="20.5,-70 20.5,-268 475.5,-268 475.5,-70 20.5,-70"/>
</g>
<g id="clust2" class="cluster">
<title>cluster_CloukitPaginationModule_declarations</title>
<polygon fill="none" stroke="#000000" points="28.5,-78 28.5,-130 467.5,-130 467.5,-78 28.5,-78"/>
</g>
<g id="clust6" class="cluster">
<title>cluster_CloukitPaginationModule_exports</title>
<polygon fill="none" stroke="#000000" points="155.5,-208 155.5,-260 357.5,-260 357.5,-208 155.5,-208"/>
</g>
<!-- CloukitPaginationComponent -->
<g id="node1" class="node">
<title>CloukitPaginationComponent</title>
<polygon fill="#ffffb3" stroke="#000000" points="459.2245,-122 275.7755,-122 275.7755,-86 459.2245,-86 459.2245,-122"/>
<text text-anchor="middle" x="367.5" y="-99.8" font-family="Times,serif" font-size="14.00" fill="#000000">CloukitPaginationComponent</text>
</g>
<!-- CloukitPaginationModule -->
<g id="node3" class="node">
<title>CloukitPaginationModule</title>
<polygon fill="#8dd3c7" stroke="#000000" points="337.4424,-187 334.4424,-191 313.4424,-191 310.4424,-187 175.5576,-187 175.5576,-151 337.4424,-151 337.4424,-187"/>
<text text-anchor="middle" x="256.5" y="-164.8" font-family="Times,serif" font-size="14.00" fill="#000000">CloukitPaginationModule</text>
</g>
<!-- CloukitPaginationComponent&#45;&gt;CloukitPaginationModule -->
<g id="edge1" class="edge">
<title>CloukitPaginationComponent&#45;&gt;CloukitPaginationModule</title>
<path fill="none" stroke="#000000" d="M306.5544,-122.1061C306.5544,-122.1061 306.5544,-140.991 306.5544,-140.991"/>
<polygon fill="#000000" stroke="#000000" points="303.0544,-140.9909 306.5544,-150.991 310.0544,-140.991 303.0544,-140.9909"/>
</g>
<!-- CloukitPaginationButtonComponent -->
<g id="node2" class="node">
<title>CloukitPaginationButtonComponent</title>
<polygon fill="#ffffb3" stroke="#000000" points="258.3425,-122 36.6575,-122 36.6575,-86 258.3425,-86 258.3425,-122"/>
<text text-anchor="middle" x="147.5" y="-99.8" font-family="Times,serif" font-size="14.00" fill="#000000">CloukitPaginationButtonComponent</text>
</g>
<!-- CloukitPaginationButtonComponent&#45;&gt;CloukitPaginationModule -->
<g id="edge2" class="edge">
<title>CloukitPaginationButtonComponent&#45;&gt;CloukitPaginationModule</title>
<path fill="none" stroke="#000000" d="M216.9751,-122.1061C216.9751,-122.1061 216.9751,-140.991 216.9751,-140.991"/>
<polygon fill="#000000" stroke="#000000" points="213.4752,-140.9909 216.9751,-150.991 220.4752,-140.991 213.4752,-140.9909"/>
</g>
<!-- CloukitPaginationComponent  -->
<g id="node4" class="node">
<title>CloukitPaginationComponent </title>
<polygon fill="#fb8072" stroke="#000000" points="349.7246,-252 163.2754,-252 163.2754,-216 349.7246,-216 349.7246,-252"/>
<text text-anchor="middle" x="256.5" y="-229.8" font-family="Times,serif" font-size="14.00" fill="#000000">CloukitPaginationComponent </text>
</g>
<!-- CloukitPaginationModule&#45;&gt;CloukitPaginationComponent  -->
<g id="edge3" class="edge">
<title>CloukitPaginationModule&#45;&gt;CloukitPaginationComponent </title>
<path fill="none" stroke="#000000" stroke-dasharray="5,2" d="M256.5,-187.1061C256.5,-187.1061 256.5,-205.991 256.5,-205.991"/>
<polygon fill="#000000" stroke="#000000" points="253.0001,-205.9909 256.5,-215.991 260.0001,-205.991 253.0001,-205.9909"/>
</g>
</g>
</svg>
